# xmcd
#
# Track frame offsets:
#	150
#	19753
#	33808
#	54248
#	67678
#	80532
#	95899
#	110614
#	121348
#	133230
#	147579
#	164665
#	179088
#	193247
#	207488
#	223173
#
# Disc length: 3158 seconds
#
# Revision: 0
# Processed by: cddbd v1.5.2PL0 Copyright (c) Steve Scherf et al.
# Submitted via: EasyCDDAExtractor 10.5.1.1
#
DISCID=fa0c5410
DTITLE=Kris Kristofferson - 16 Biggest Hits
DYEAR=2007
DGENRE=Country
TTITLE0=Me And Bobby McGee
TTITLE1=Jody And The Kid
TTITLE2=Sunday Mornin' Comin' Down
TTITLE3=From The Bottle To The Bottom
TTITLE4=One More With Feeling
TTITLE5=For The Good Times
TTITLE6=The Taker
TTITLE7=Help Me Make It Through The Night
TTITLE8=Come Sundown
TTITLE9=The Pilgrim - Chapter 33
TTITLE10=Loving Her Was Easier (Than Anything I'll Ever Do Again)
TTITLE11=I'd Rather Be Sorry (feat. Rita Coolidge)
TTITLE12=Nobody Wins
TTITLE13=Stranger
TTITLE14=Why Me
TTITLE15=Highwayman (feat. Waylon Jennings, Willie Nelson and Johnny Cash)
EXTD=
EXTT0=
EXTT1=
EXTT2=
EXTT3=
EXTT4=
EXTT5=
EXTT6=
EXTT7=
EXTT8=
EXTT9=
EXTT10=
EXTT11=
EXTT12=
EXTT13=
EXTT14=
EXTT15=
PLAYORDER=
